<svg version="1" xmlns="http://www.w3.org/2000/svg" width="682.667" height="682.667" viewBox="0 0 512.000000 512.000000"><path d="M236.9.5c-.2.2-3.8.6-7.9 1-4.1.4-8.2.8-9 1-.8.1-3.7.5-6.5 1-2.7.4-5.8.9-6.7 1.1-4.7 1-6.5 1.4-9.3 2.1-1.6.4-3.2.7-3.5.8-.3.1-1.4.4-2.5.8-1.1.3-3.1.8-4.5 1.1-7.6 1.5-28.2 9.2-40.9 15.3-27.2 13-50 29.1-71.1 50.3-13.1 13.2-17 17.5-17 19 0 .5-.4 1-.8 1-.5 0-2.4 2.1-4.2 4.7-1.9 2.7-3.7 5-4 5.3-.3.3-2.8 3.9-5.5 8-2.8 4.1-5.2 7.7-5.5 8-.3.3-1.2 1.8-2.1 3.5-16.5 30.3-25.5 53.7-30.8 80-1.9 9.8-2.3 12.2-3.8 25.5-1 8.3-1 41.1-.1 51 1.5 15.9 7.8 45.4 11.4 53.7.8 1.7 1.4 3.5 1.4 4 0 3.4 15.7 38.1 18.8 41.5.8 1 1.2 1.8.7 1.8-.4 0 .4 1.5 1.9 3.4 1.4 1.9 2.6 3.8 2.6 4.2 0 .3 1.6 2.9 3.5 5.5 1.9 2.7 3.5 5.4 3.5 5.9 0 .6.4 1 .8 1 .5 0 1.7 1.6 2.8 3.5 1 1.9 2.2 3.5 2.5 3.5.4 0 1.5 1.3 2.6 2.9 4.3 6.9 26.5 30.3 36.3 38.5 9.7 8 27.9 20.9 36 25.5 15.1 8.5 34.4 17.3 48.5 21.9 7.5 2.5 23.8 6.9 28.4 7.7 1.9.3 3.7.7 4 .9.3.2 2.6.7 5.1 1 2.5.3 5.4.8 6.6 1 15.8 3.1 59.5 2.8 76.8-.5 2.8-.5 6.7-1.2 8.6-1.5 5.3-.9 21.9-5.1 26.8-6.8 2.3-.8 4.6-1.6 5-1.7 3.2-.7 18.2-6.6 27.2-10.6 4.1-1.9 7.7-3.3 7.9-3.3.2.1.7-.2 1-.7.3-.4 3.5-2.3 7.1-4.2 9.2-4.9 22.1-13.3 32-21 11.6-9 13-10.2 24.5-21.6 11-11 13.4-13.6 21.5-24 3-3.9 5.7-7.2 6-7.5.3-.3 1.1-1.4 1.7-2.5.7-1.1 3.9-6.2 7-11.4 3.2-5.1 6.8-10.8 8-12.7 1.2-1.9 2-3.4 1.7-3.4-.3 0 .6-1.9 2-4.3 1.4-2.3 3.9-7.6 5.6-11.7 1.7-4.1 3.7-8.9 4.4-10.5 3-6.9 9.4-27.4 11.2-36 1.5-7 2.6-12.5 3-16 .3-2.2.7-4.6.9-5.3 3-8.9 2.6-58-.5-74.7-.5-2.8-1.2-6.6-1.4-8.5-1.9-12.8-14.4-52.7-16.8-53.8-.5-.2-.8-1-.8-1.8 0-2-13.1-27.4-14.2-27.4-.4 0-.8-.6-.8-1.3 0-1.4-8.9-15-10.2-15.5-.4-.2-.8-.8-.8-1.4 0-.5-3.5-5.3-7.7-10.6-10.4-13-29.8-32.3-40.2-40.2-1.8-1.4-4.6-3.6-6.2-4.9-7.6-6.1-26-17.3-39-23.8-13.2-6.6-28.6-13.1-32-13.6-.8-.2-2.7-.8-4.4-1.4-10.4-3.9-27.9-7.9-43-9.9-2.7-.3-5.9-.8-7-1.1-2.4-.6-46.1-1.4-46.6-.8zm52.6 32.8C316.3 37.9 335 43.9 357 55c26.5 13.3 49 30.8 70 54.5 3.5 3.9 15.5 19.9 17.5 23.3.6.9 3.3 5.5 6.1 10.2 15.1 25.3 25.6 56.7 29.1 87 .9 7.1.9 49.3 0 52.5-.2 1.1-.8 4.2-1.1 7-2.9 21.5-12.5 50.8-23.5 71.5-1.9 3.6-3.9 7.5-4.5 8.7-.6 1.3-1.4 2.3-1.8 2.3-.5 0-.8.5-.8 1.1 0 .5-2.5 4.7-5.7 9.2-25.5 37-60 65-101.3 82.2-15.4 6.5-38.7 12.6-56.5 14.8-20.8 2.7-51 1.7-71-2.2-3.3-.7-7.1-1.4-8.5-1.7-14.4-2.8-40.5-12.8-57-21.9-44.5-24.5-78.4-62-99.5-110-6.9-15.7-13.7-41.2-16.2-61-.8-6.3-.9-48.2-.1-52.5.3-1.4.8-5 1.2-8 .4-3 1.2-7.1 1.6-9 .5-1.9 1.2-5.1 1.5-7 .3-1.9 2-8.2 3.7-14 22.4-75.6 83.4-134.4 159.9-154 10.9-2.8 11.2-2.9 25.4-5 15.2-2.2 50.3-2 64 .3z"/><path d="M182.3 92.5c-1.6.7-3.9 2-4.9 2.9-1.1.8-5.3 4-9.4 7-4.1 3.1-7.9 5.9-8.5 6.4-.5.4-4 2.9-7.6 5.5-8.2 5.8-8.7 6.4-9.4 11.3-.4 2.1-.8 4.6-1.1 5.5-.2.9-.7 3.2-.9 5-.3 1.9-.7 4.5-1 5.9-.3 1.4-.8 4.5-1.1 6.9-.7 6-.9 6.3-5.7 5.5-12-1.9-13.9-.6-15.7 11.2-1.4 8.8-.4 11.8 4.2 13.3 3 .9 7.5 1.8 10.5 2 .7.1.9 1.2.7 2.8-.3 1.6-2 11.8-3.8 22.8-3.6 21.8-3.5 24.5 1.2 26.3 1.5.6 5.6 1.5 9.2 2.1 3.6.6 7.5 1.3 8.6 1.5 1.2.2 3.7.7 5.5.9 1.9.3 5.7.9 8.4 1.3 10.1 1.6 11.7.2 13.9-12.7.9-5.2 1.8-10.5 2.1-11.9.3-1.4.7-3.9 1-5.7 1.6-12.2 3.3-19.5 4.4-18.9.4.3 3.4 1 6.7 1.5 14.6 2.5 24.1 4.1 26.4 4.5 1.4.3 8.1 1.4 15 2.6 6.9 1.1 13.4 2.2 14.5 2.4 2.5.5 10.4 1.8 13 2.2 1.1.2 2.9.5 4 .7 1.1.3 4.2.8 6.8 1.1 2.7.4 5.9.9 7 1.2 1.2.2 3.3.6 4.7.8 3.5.6 11.4 2 12 2.1.3 0 2.6.4 5.1.8 4.9.8 6.6 1.1 16.2 2.7 8.5 1.5 10.3 1.8 15.6 2.7 2.5.4 4.8.8 5.1.8.6.1 8.5 1.5 12 2.1 1.4.2 3.6.6 5 .9 1.4.3 4.2.8 6.2 1 2 .3 7.2 1.2 11.5 2s9.2 1.5 10.9 1.5c3.8 0 7-3.3 7.7-8 .3-1.9.8-5.4 1.2-7.7.9-6.6-1.6-9.8-8.7-10.7-3.9-.6-27.2-4.4-30.8-5.1-3.2-.6-12.6-2.3-16.5-2.9-5.1-.7-33.4-5.5-45-7.6-6-1-12.6-2.1-14.5-2.4-1.9-.3-4.7-.8-6.2-1.1-1.6-.3-4-.7-5.5-1-1.6-.3-4.4-.8-6.3-1.1-1.9-.3-4.6-.7-6-1-1.4-.2-4.1-.7-6-1-1.9-.3-4.6-.7-6-1-8.5-1.4-28-4.7-30.5-5-1.6-.3-5-.9-7.5-1.4-2.5-.5-6.3-1.2-8.5-1.5-2.2-.3-4.3-.9-4.6-1.3-.4-.4.1-5.4 1.1-11.2 2.7-15.4 2.8-16.1 3.4-20.5.4-2.2 1.3-7.6 2.1-12 3.2-18.1 3.4-20.5 2.4-23.2-1.6-4.1-8.2-6-13.6-3.8zM191 262.5c0 4-4.7 9.5-8.2 9.6-1.2 0-20.2 0-42.1.1H101l2.2 3.7c11.1 18.4 23.8 31.1 38.5 38.5 7.4 3.7 18.4 6.4 28.6 7 10.5.6 17.2 3.3 23.1 9.2 12 12 12 32.1 0 43.9-4.5 4.4-10.7 7.4-17.3 8.4l-4.6.6-.1 11.3-.1 11.2h81.5l.7-3.7c2.1-11.1 10.9-19.1 21.9-19.8 11.4-.7 20.8 5.6 24.5 16.5 1 3.2 1.7 6.1 1.3 6.4-.3.3 19.1.6 43.1.6 40.9 0 43.7-.1 43.8-1.8.2-4.4 0-21.5-.3-21.7-.2-.2-2.4-.6-5-.9-20.2-2.4-37.7-18.3-42.4-38.5-1.4-6.3-1.2-16.7.5-23.1 5.2-19.2 22.5-34.3 41.4-36.2 2.6-.3 5-.8 5.3-1.1.5-.4.8-16.4.5-22-.1-1.7-4.7-1.8-98.6-1.6l-98.5.1v3.3z"/></svg>